<svg width="48" height="48" viewBox="0 0 48 48" fill="none" xmlns="http://www.w3.org/2000/svg">
<path d="M0.75 9C0.336914 9 0 9.33398 0 9.75C0 10.166 0.336914 10.5 0.75 10.5H29.25C29.6631 10.5 30 10.8369 30 11.25V31.5H3V24.75C3 24.334 2.66309 24 2.25 24C1.83691 24 1.5 24.334 1.5 24.75V31.5C1.5 31.5469 1.51758 31.5879 1.52637 31.6289C0.641602 31.9336 0 32.7627 0 33.75V38.25C0 39.4893 1.01074 40.5 2.25 40.5H6.05859C6.4248 43.04 8.61035 45 11.25 45C13.8896 45 16.0752 43.04 16.4414 40.5H33.0586C33.4248 43.04 35.6104 45 38.25 45C40.8896 45 43.0752 43.04 43.4414 40.5H45.75C46.9893 40.5 48 39.4893 48 38.25V33.75C48 32.7627 47.3584 31.9336 46.4736 31.6289C46.4824 31.5879 46.5 31.5469 46.5 31.5V28.6318C46.5 27.9111 46.2949 27.2109 45.9023 26.6016L40.5146 18.2227C39.8232 17.1445 38.6455 16.5 37.3623 16.5H36V15C36 14.584 35.6631 14.25 35.25 14.25C34.8369 14.25 34.5 14.584 34.5 15V16.5H31.5V11.25C31.5 10.0107 30.4893 9 29.25 9H0.75ZM0.75 12C0.336914 12 0 12.334 0 12.75C0 13.166 0.336914 13.5 0.75 13.5H3.75C4.16309 13.5 4.5 13.166 4.5 12.75C4.5 12.334 4.16309 12 3.75 12H0.75ZM6.75 12C6.33691 12 6 12.334 6 12.75C6 13.166 6.33691 13.5 6.75 13.5H23.25C23.6631 13.5 24 13.166 24 12.75C24 12.334 23.6631 12 23.25 12H6.75ZM0.75 15C0.336914 15 0 15.334 0 15.75C0 16.166 0.336914 16.5 0.75 16.5H17.25C17.6631 16.5 18 16.166 18 15.75C18 15.334 17.6631 15 17.25 15H0.75ZM0.75 18C0.336914 18 0 18.334 0 18.75C0 19.166 0.336914 19.5 0.75 19.5H11.25C11.6631 19.5 12 19.166 12 18.75C12 18.334 11.6631 18 11.25 18H0.75ZM31.5 18H37.3623C38.1299 18 38.8389 18.3867 39.2549 19.0342L44.6426 27.4131C44.877 27.7793 45 28.2012 45 28.6318V31.5H31.5V18ZM34.5 19.5C33.6738 19.5 33 20.1738 33 21V25.5C33 26.3262 33.6738 27 34.5 27H39.8965C40.4414 27 40.9453 26.7041 41.209 26.2266C41.4727 25.752 41.458 25.166 41.168 24.7031L38.3555 20.2031C38.0801 19.7637 37.6025 19.5 37.084 19.5H34.5ZM0.75 21C0.336914 21 0 21.334 0 21.75C0 22.166 0.336914 22.5 0.75 22.5H5.25C5.66309 22.5 6 22.166 6 21.75C6 21.334 5.66309 21 5.25 21H0.75ZM34.5 21H37.084L39.9023 25.5H34.5V21ZM33.75 28.5C33.3369 28.5 33 28.834 33 29.25C33 29.666 33.3369 30 33.75 30H35.25C35.6631 30 36 29.666 36 29.25C36 28.834 35.6631 28.5 35.25 28.5H33.75ZM2.25 33H45.75C46.1631 33 46.5 33.3369 46.5 33.75V38.25C46.5 38.6631 46.1631 39 45.75 39H43.4414C43.0752 36.46 40.8896 34.5 38.25 34.5C35.6104 34.5 33.4248 36.46 33.0586 39H16.4414C16.0752 36.46 13.8896 34.5 11.25 34.5C8.61035 34.5 6.4248 36.46 6.05859 39H2.25C1.83691 39 1.5 38.6631 1.5 38.25V37.5C1.91309 37.5 2.25 37.166 2.25 36.75V35.25C2.25 34.834 1.91309 34.5 1.5 34.5V33.75C1.5 33.3369 1.83691 33 2.25 33ZM5.25 34.5C4.83691 34.5 4.5 34.834 4.5 35.25V36.75C4.5 37.166 4.83691 37.5 5.25 37.5C5.66309 37.5 6 37.166 6 36.75V35.25C6 34.834 5.66309 34.5 5.25 34.5ZM17.25 34.5C16.8369 34.5 16.5 34.834 16.5 35.25V36.75C16.5 37.166 16.8369 37.5 17.25 37.5C17.6631 37.5 18 37.166 18 36.75V35.25C18 34.834 17.6631 34.5 17.25 34.5ZM21 34.5C20.5869 34.5 20.25 34.834 20.25 35.25V36.75C20.25 37.166 20.5869 37.5 21 37.5C21.4131 37.5 21.75 37.166 21.75 36.75V35.25C21.75 34.834 21.4131 34.5 21 34.5ZM24.75 34.5C24.3369 34.5 24 34.834 24 35.25V36.75C24 37.166 24.3369 37.5 24.75 37.5C25.1631 37.5 25.5 37.166 25.5 36.75V35.25C25.5 34.834 25.1631 34.5 24.75 34.5ZM28.5 34.5C28.0869 34.5 27.75 34.834 27.75 35.25V36.75C27.75 37.166 28.0869 37.5 28.5 37.5C28.9131 37.5 29.25 37.166 29.25 36.75V35.25C29.25 34.834 28.9131 34.5 28.5 34.5ZM32.25 34.5C31.8369 34.5 31.5 34.834 31.5 35.25V36.75C31.5 37.166 31.8369 37.5 32.25 37.5C32.6631 37.5 33 37.166 33 36.75V35.25C33 34.834 32.6631 34.5 32.25 34.5ZM44.25 34.5C43.8369 34.5 43.5 34.834 43.5 35.25V36.75C43.5 37.166 43.8369 37.5 44.25 37.5C44.6631 37.5 45 37.166 45 36.75V35.25C45 34.834 44.6631 34.5 44.25 34.5ZM11.25 36C13.3184 36 15 37.6816 15 39.75C15 41.8184 13.3184 43.5 11.25 43.5C9.18164 43.5 7.5 41.8184 7.5 39.75C7.5 37.6816 9.18164 36 11.25 36ZM38.25 36C40.3184 36 42 37.6816 42 39.75C42 41.8184 40.3184 43.5 38.25 43.5C36.1816 43.5 34.5 41.8184 34.5 39.75C34.5 37.6816 36.1816 36 38.25 36ZM11.25 38.25C10.4209 38.25 9.75 38.9209 9.75 39.75C9.75 40.5791 10.4209 41.25 11.25 41.25C12.0791 41.25 12.75 40.5791 12.75 39.75C12.75 38.9209 12.0791 38.25 11.25 38.25ZM38.25 38.25C37.4209 38.25 36.75 38.9209 36.75 39.75C36.75 40.5791 37.4209 41.25 38.25 41.25C39.0791 41.25 39.75 40.5791 39.75 39.75C39.75 38.9209 39.0791 38.25 38.25 38.25Z" fill="#4B4537"/>
</svg>
